<?xml version="1.0" encoding="utf-8"?>
<svg xmlns="http://www.w3.org/2000/svg" viewBox="0 0 512 512" width="512" height="512">
  <circle cx="256" cy="256" r="256" fill="#022A5A"/>
  <g transform="matrix(0.9332, 0, 0, 0.9332, -223.521274, -222.240024)">
    <path fill="#FEFFFF" d="M371.895 350.194L457.087 350.145C512.646 350.128 566.668 347.295 609.54 390.269C681.75 462.65 672.944 620.546 568.707 659.897C531.72 673.861 495.578 671.743 456.994 671.678L371.122 671.667L371.087 595.073C384.7 583.156 400.767 566.908 414.11 554.171L427.018 541.663L426.977 626.263C443.48 626.082 461.322 626.199 477.917 626.379C511.338 627.452 548.349 625.596 573.704 600.424C617.197 557.243 615.677 466.047 572.912 422.707C546.109 395.544 512.747 396.012 477.422 396.014L426.979 396.095L426.968 473.711C409.399 491.279 389.86 509.133 371.824 526.501L371.895 350.194Z"/>
  </g>
</svg>