<?xml version="1.0" encoding="utf-8"?>
<svg xmlns="http://www.w3.org/2000/svg" viewBox="331.087 301.009 390.7 422.9" width="512" height="512">
  <path fill="#FEFFFF" d="M 384.486 350.194 L 469.678 350.145 C 525.237 350.128 579.259 347.295 622.131 390.269 C 694.341 462.65 685.535 620.546 581.298 659.897 C 544.311 673.861 508.169 671.743 469.585 671.678 L 383.713 671.667 L 383.678 595.073 C 397.291 583.156 413.358 566.908 426.701 554.171 L 439.609 541.663 L 439.568 626.263 C 456.071 626.082 473.913 626.199 490.508 626.379 C 523.929 627.452 560.94 625.596 586.295 600.424 C 629.788 557.243 628.268 466.047 585.503 422.707 C 558.7 395.544 525.338 396.012 490.013 396.014 L 439.57 396.095 L 439.559 473.711 C 421.99 491.279 402.451 509.133 384.415 526.501 L 384.486 350.194 Z"/>
</svg>