<?xml version="1.0" encoding="utf-8"?>
<svg xmlns="http://www.w3.org/2000/svg" viewBox="331.087 301.009 1390.703 422.89" width="1391" height="423">
<path fill="#022A5A" d="M1538.22 424.845C1607.95 418.766 1669.42 470.306 1675.61 540.026C1681.79 609.747 1630.35 671.305 1560.64 677.595C1490.78 683.899 1429.06 632.317 1422.86 562.447C1416.66 492.577 1468.34 430.936 1538.22 424.845Z"/><path fill="#FEFFFF" d="M1543.14 466.379C1642.94 459.803 1656.26 624.648 1554.25 636.607C1456.96 645.095 1440.94 476.294 1543.14 466.379Z"/><path fill="#022A5A" d="M371.895 350.194L457.087 350.145C512.646 350.128 566.668 347.295 609.54 390.269C681.75 462.65 672.944 620.546 568.707 659.897C531.72 673.861 495.578 671.743 456.994 671.678L371.122 671.667L371.087 595.073C384.7 583.156 400.767 566.908 414.11 554.171L427.018 541.663L426.977 626.263C443.48 626.082 461.322 626.199 477.917 626.379C511.338 627.452 548.349 625.596 573.704 600.424C617.197 557.243 615.677 466.047 572.912 422.707C546.109 395.544 512.747 396.012 477.422 396.014L426.979 396.095L426.968 473.711C409.399 491.279 389.86 509.133 371.824 526.501L371.895 350.194Z"/><path fill="#022A5A" d="M687.422 495.233C691.787 473.127 697.111 456.052 717.165 443.115C759.823 415.596 848.473 414.909 879.464 460.727C894.877 483.514 891.256 529.038 891.233 556.211L891.201 671.324C887.363 672.762 848.581 671.835 841.266 671.768C841.371 660.695 841.003 649.435 841.188 638.478L837.738 638.406C827.539 656.425 812.998 666.308 792.899 671.472C764.557 678.554 731.322 676.904 705.462 663.16C674.317 646.607 664.608 602.773 682.856 573.646C714.307 523.444 789.719 530.669 839.925 519.327C839.965 504.214 841.777 487.656 829.634 476.49C817.349 465.194 799.552 462.236 783.423 462.978C759.838 464.062 739.11 472.732 735.323 498.427C719.337 497.673 703.367 496.608 687.422 495.233Z"/><path fill="#687A92" d="M840.216 625.511L842.382 625.891C841.387 636.074 842.157 659.406 842.153 670.854C850.57 670.852 884.235 670.366 891.201 671.324C887.363 672.762 848.581 671.835 841.266 671.768C841.371 660.695 841.003 649.435 841.188 638.478C841.079 634.94 840.92 634.129 840.263 630.576C840.176 628.655 840.104 627.423 840.216 625.511Z"/><path fill="#FEFFFF" d="M840.263 630.576C840.92 634.129 841.079 634.94 841.188 638.478L837.738 638.406C838.705 635.695 839.432 633.348 840.263 630.576Z"/><path fill="#1A3A62" d="M840.216 625.511C840.249 625.021 840.182 620.188 841.631 620.653C842.544 621.615 842.321 624.736 842.382 625.891L840.216 625.511Z"/><path fill="#FEFFFF" d="M791.722 558.402C800.556 557.141 829.578 557.82 839.881 557.875C840.479 606.209 831.861 635.207 776.617 640.179C763.649 640.474 750.742 639.085 739.816 631.337C723.912 620.059 721.034 594.678 733.074 579.601C746.405 562.907 771.993 560.596 791.722 558.402Z"/><path fill="#022A5A" d="M1009.89 341.009C1011.73 343.534 1010.95 419.474 1010.94 429.142L1088.74 429.236C1081.15 442.529 1072.29 457.304 1065.98 471.059C1047.83 470.749 1029.23 470.94 1011.05 470.923L1011.03 551.553C1010.84 601.947 1002.82 650.048 1074.36 629.225C1077.94 639.034 1082.03 654.627 1085.3 665.187L1066.58 671.532C1019.85 681.239 972.584 671.468 961.408 618.248C956.743 596.03 958.284 572.354 958.296 549.665L958.235 471.25L911.928 471.099L911.898 429.4C926.982 429.031 942.906 429.253 958.056 429.227L957.79 381.32C975.071 367.77 992.439 354.333 1009.89 341.009Z"/><path fill="#022A5A" d="M1377.67 429.218L1431.91 429.149C1428.21 438.5 1424.57 447.873 1420.98 457.269C1392.84 528.002 1367.13 600.242 1339.72 671.326C1319.4 671.441 1299.07 671.392 1278.75 671.179C1268.25 644.336 1258.5 615.243 1248.73 588.021L1191.43 429.208L1246.38 429.231C1268.48 496.946 1289.17 567.8 1310.14 636.111C1317.13 617.648 1325.02 591.291 1331.31 572.19L1377.67 429.218Z"/><path fill="#022A5A" d="M1113.31 429.116L1166 429.138L1165.89 672.965L1113.22 672.996L1113.31 429.116Z"/><path fill="#022A5A" d="M1113.44 345.916L1166.01 345.871L1166.16 401.301C1148.54 401.408 1130.92 401.401 1113.29 401.28C1113.14 382.825 1113.19 364.369 1113.44 345.916Z"/>
</svg>