<?xml version="1.0" encoding="utf-8"?>
<svg xmlns="http://www.w3.org/2000/svg" viewBox="334.492 1326.97 1390.368 434.0799999999999" width="1390" height="434">
<rect x="334.492" y="1326.97" width="1390.368" height="434.0799999999999" fill="#022A5A"/>
<path fill="#FEFFFF" d="M1535.39 1451.06C1605.03 1442.8 1668.2 1492.51 1676.53 1562.15C1684.86 1631.78 1635.2 1694.99 1565.57 1703.38C1495.86 1711.78 1432.54 1662.04 1424.21 1592.32C1415.87 1522.6 1465.67 1459.33 1535.39 1451.06Z"/><path fill="#022A5A" d="M1541.57 1492.34C1648.3 1485.68 1652.96 1650.13 1558.3 1663.68C1507.61 1667.35 1477.67 1632.09 1475.36 1583.87C1473.15 1537.67 1493.68 1499.27 1541.57 1492.34Z"/><path fill="#FEFFFF" d="M374.765 1376.1L456.157 1376.35C513.332 1376.23 567.518 1373.35 611.919 1417.13C684.073 1488.26 676.545 1641.34 576.34 1684.16C538.332 1700.4 499.969 1698.11 459.745 1698.12L374.595 1698.1L374.492 1621.88L417.319 1580.76L430.155 1568.6L430.166 1653.1L478.584 1653.1C514.102 1653.07 550.663 1653 577.871 1625.92C599.978 1603.91 608.052 1570.45 608.174 1540.18C608.362 1493.73 588.392 1443.57 540.794 1428.37C520.704 1421.86 502.087 1422.81 481.29 1422.83L429.978 1422.94C430.329 1448.59 429.985 1475.05 429.976 1500.76C412.956 1515.46 392.139 1536.5 374.89 1552.39L374.765 1376.1Z"/><path fill="#FEFFFF" d="M689.921 1521.75C693.25 1501.17 699.953 1482.94 718.019 1470.3C759.004 1441.63 848.484 1441.55 880.103 1484.6C896.619 1507.09 892.587 1554.21 892.533 1582.06L892.39 1698.44L843.452 1698.21C841.799 1689.7 844.138 1668.8 842.407 1659.68C842.356 1659.42 841.63 1659.44 841.463 1659.43C836.187 1674.56 827.597 1685.3 811.718 1692.62C750.067 1721.05 655.885 1692.37 680.95 1609.63C686.659 1590.79 707.823 1575.17 724.804 1567.93C761.307 1550.53 807.491 1556.67 841.953 1546.61C842.056 1532.31 843.755 1513.02 832.329 1502.52C811.775 1483.62 765.996 1483.95 746.441 1504.36C740.859 1510.18 738.812 1516.77 737.132 1524.41C721.588 1523.6 705.349 1522.35 689.921 1521.75Z"/><path fill="#687A92" d="M844.282 1652.91C843.183 1666.12 845.141 1686.09 843.452 1698.21C841.799 1689.7 844.138 1668.8 842.407 1659.68C842.356 1659.42 841.63 1659.44 841.463 1659.43C841.856 1656.61 841.889 1656.02 841.852 1653.17L844.282 1652.91Z"/><path fill="#C0C4CE" d="M841.852 1653.17C841.923 1652.4 841.958 1647.76 843.316 1647.74C844.309 1648.5 844.195 1651.88 844.282 1652.91L841.852 1653.17Z"/><path fill="#022A5A" d="M800.537 1584.41C812.886 1583.54 829.299 1583.93 841.982 1583.92C842.5 1637.16 832.813 1664.71 772.798 1666.66C751.014 1665.6 731.111 1658.49 728.451 1633.55C724.019 1592.02 770.465 1587.12 800.537 1584.41Z"/><path fill="#FEFFFF" d="M1011.89 1366.97C1013.92 1369.35 1012.94 1445.46 1012.92 1455.25L1090.75 1455.42C1083.8 1469.04 1075.23 1483.85 1067.9 1497.55L1012.81 1497.64L1012.95 1585.53C1012.99 1637.99 1007.93 1672.91 1076.26 1655.92C1079.42 1668 1082.71 1680.04 1086.13 1692.05L1066.96 1697.49C1038.38 1703.52 1004.73 1703.24 982.753 1681.17C956.402 1654.71 960.487 1610.83 960.45 1576.48L960.38 1497.67L914.443 1497.45L914.458 1455.21L959.859 1455.23L959.731 1407.44C976.229 1393.86 994.866 1380.08 1011.89 1366.97Z"/><path fill="#FEFFFF" d="M1379.91 1455.22C1397.77 1455.22 1415.62 1455.38 1433.47 1455.7C1429.73 1465.03 1426.06 1474.38 1422.44 1483.75C1394.46 1553.28 1367.56 1627.14 1341.01 1697.42L1280.19 1697.22C1260.96 1640.91 1239.43 1584.61 1219.85 1528.44C1214.5 1513.1 1197.06 1469.21 1194.19 1455.37C1211.87 1455.15 1230.07 1455.44 1247.79 1455.51C1269.67 1524 1289.83 1593.55 1311.87 1661.79L1379.91 1455.22Z"/><path fill="#FEFFFF" d="M1165.61 1443.96C1168.32 1447.17 1167 1675.5 1167 1699.12L1116.09 1699.07C1113.7 1696.36 1114.73 1629.39 1114.74 1620.84L1114.7 1472.06C1128.62 1463.19 1150.76 1451.89 1165.61 1443.96Z"/><path fill="#FEFFFF" d="M1114.64 1370.05L1166.94 1370.07L1166.93 1425.83L1114.74 1425.81L1114.64 1370.05Z"/>
</svg>